<svg xmlns="http://www.w3.org/2000/svg" xmlns:xlink="http://www.w3.org/1999/xlink" width="141.191" height="141.219" viewBox="0 0 141.191 141.219">
  <defs>
    <linearGradient id="linear-gradient" x1="0.5" x2="0.5" y2="1" gradientUnits="objectBoundingBox">
      <stop offset="0" stop-color="#05cde1"/>
      <stop offset="1" stop-color="#0e0e0e"/>
    </linearGradient>
  </defs>
  <path id="icon" d="M72.6,2a3.231,3.231,0,0,0-1.535.384L48.137,15.141,72.6,28.473,97.151,15.237,74.13,2.384A3.231,3.231,0,0,0,72.6,2ZM44.971,20.416v8.729L15.812,45.355a3.07,3.07,0,0,0-1.535,2.686V74.514l-9.3,5.18L29.624,92.93,53.988,79.6,31.159,66.841a3.238,3.238,0,0,0-3.069,0l-7.673,4.22v-21.2l24.555-13.62v9.784a3.036,3.036,0,0,0,1.535,2.686l23.02,12.757V33.845Zm55.249.192L75.665,33.845V61.469l23.02-12.757a3.03,3.03,0,0,0,1.535-2.686V36.243l24.555,13.62V71.157L117.1,66.841a3.238,3.238,0,0,0-3.069,0L91.108,79.6,115.567,92.93,139.93,79.6l-9.016-5.084V48.041a3.029,3.029,0,0,0-1.535-2.686L100.22,29.145ZM57.249,84.777,32.694,98.3v27.624l4.029-2.206,34.339,19.088a3.07,3.07,0,0,0,3.069,0l34.339-19.088,4.029,2.206V98.3L87.943,84.873v25.61a3.033,3.033,0,0,0,1.535,2.686l12.661,7L72.6,136.573l-29.543-16.4,12.661-7a3.036,3.036,0,0,0,1.535-2.686Zm85.943,0L118.636,98.3v27.624l23.02-12.757a3.033,3.033,0,0,0,1.535-2.686ZM2,85.065v25.418a3.039,3.039,0,0,0,1.535,2.686l23.02,12.757V98.3Z" transform="translate(-2 -2)" fill="url(#linear-gradient)"/>
</svg>
